<svg width="24" height="24" viewBox="0 0 24 24" fill="none" xmlns="http://www.w3.org/2000/svg">
<path d="M24 0H0V24H24V0Z" fill="#0071B9"/>
<path d="M19.4691 6.90393H14.792V8.06735H19.4691V6.90393Z" fill="white"/>
<path d="M21.3308 13.4429C21.3308 13.6527 21.3224 13.8547 21.3057 14.0478H15.3041H15.2902C15.2343 15.3742 16.2023 16.1635 17.3029 16.1635C18.0829 16.1635 18.7684 15.7497 19.1635 15.0484H21.1325C20.5922 17.0202 19.0048 17.8407 17.1307 17.8407C14.6759 17.8407 12.9307 15.8717 12.9307 13.4429C12.9307 11.0141 14.8112 9.0451 17.1307 9.0451C19.4502 9.0451 21.3308 11.0141 21.3308 13.4429ZM15.2902 12.5796H18.9899C18.8429 11.4869 18.0708 10.7902 17.14 10.7902C16.2093 10.7902 15.4372 11.4869 15.2902 12.5796Z" fill="white"/>
<path d="M12.2092 13.6288C12.3604 15.3158 12.058 16.3629 10.336 17.2123C9.69151 17.5301 8.88361 17.6297 8.12548 17.6297H2.66895V6.15955C2.66895 6.15955 7.92773 6.15955 8.67233 6.15955C9.41692 6.15955 11.7168 6.60165 11.7299 8.81222C11.7387 10.3405 10.8736 11.0391 10.1508 11.3737C10.1508 11.3736 12.058 11.9419 12.2092 13.6288ZM9.75154 14.1142C9.75154 12.5045 7.93379 12.5464 7.93379 12.5464H5.19365V15.6821H7.93379C7.93379 15.6821 9.75154 15.724 9.75154 14.1142ZM9.30059 9.45207C9.30059 8.10248 7.77648 8.1374 7.77648 8.1374H5.19365V10.7668H7.77648C7.77648 10.7668 9.30059 10.8017 9.30059 9.45207Z" fill="white"/>
</svg>
